# xmcd
#
# Track frame offsets:
#	150
#	17803
#	36386
#	51856
#	68806
#	84837
#	101606
#	118761
#	137803
#	154770
#	170499
#	188444
#	205546
#	225850
#	243519
#
# Disc length: 3487 seconds
#
# Revision: 0
# Processed by: cddbd v1.4PL0 Copyright (c) Steve Scherf et al.
# Submitted via: EasyCDDAExtractor 4.6.0.1
#
DISCID=bb0d9d0f
DTITLE=Avril Lavigne - Let Go
DYEAR=2002
DGENRE=
TTITLE0=Losing Grip
TTITLE1=Complicated
TTITLE2=Skater Boy
TTITLE3=I'm With You
TTITLE4=Mobile
TTITLE5=Unwanted
TTITLE6=Tomorrow
TTITLE7=Anything But Ordinary
TTITLE8=Things I'll Never Say
TTITLE9=My World
TTITLE10=Nobody's Fool
TTITLE11=Too Much To Ask
TTITLE12=Naked
TTITLE13=Complicated (The Matrix Mix)
TTITLE14=Why - Bonus Track Japanese Retail
EXTD=
EXTT0=
EXTT1=
EXTT2=
EXTT3=
EXTT4=
EXTT5=
EXTT6=
EXTT7=
EXTT8=
EXTT9=
EXTT10=
EXTT11=
EXTT12=
EXTT13=
EXTT14=
PLAYORDER=
